PathFileType	4	(X/Y/Z)	/Users/itak/Documents/Research/Walk-IL/dataset/trc/00194_00008.trc
DataRate	CameraRate	NumFrames	NumMarkers	Units	OrigDataRate	OrigDataStartFrame	OrigNumFrames
100.000000	100.000000	4	53	mm	100.000000	101	810
Frame#	Time	RPSI			LPSI			L3			STRN			T10			C7			CLAV			RBAK			LBAK			LSHO			LUPA			LAEL			LAOL			LWTS			LWPS			LFRA			LIFD			LHPS			LHTS			RSHO			RUPA			RAEL			RAOL			RWTS			RWPS			RFRA			RIFD			RHTS			RHPS			RBHD			LFHD			RFHD			LBHD			LHIP			RHIP			RASI			LASI			LKNE			LTHI			LANK			LTIP			LTOE			LMT1			LMT5			LHEE			RKNE			RTHI			RANK			RTIP			RTOE			RMT1			RMT5			RHEE			
		X1	Y1	Z1	X2	Y2	Z2	X3	Y3	Z3	X4	Y4	Z4	X5	Y5	Z5	X6	Y6	Z6	X7	Y7	Z7	X8	Y8	Z8	X9	Y9	Z9	X10	Y10	Z10	X11	Y11	Z11	X12	Y12	Z12	X13	Y13	Z13	X14	Y14	Z14	X15	Y15	Z15	X16	Y16	Z16	X17	Y17	Z17	X18	Y18	Z18	X19	Y19	Z19	X20	Y20	Z20	X21	Y21	Z21	X22	Y22	Z22	X23	Y23	Z23	X24	Y24	Z24	X25	Y25	Z25	X26	Y26	Z26	X27	Y27	Z27	X28	Y28	Z28	X29	Y29	Z29	X30	Y30	Z30	X31	Y31	Z31	X32	Y32	Z32	X33	Y33	Z33	X34	Y34	Z34	X35	Y35	Z35	X36	Y36	Z36	X37	Y37	Z37	X38	Y38	Z38	X39	Y39	Z39	X40	Y40	Z40	X41	Y41	Z41	X42	Y42	Z42	X43	Y43	Z43	X44	Y44	Z44	X45	Y45	Z45	X46	Y46	Z46	X47	Y47	Z47	X48	Y48	Z48	X49	Y49	Z49	X50	Y50	Z50	X51	Y51	Z51	X52	Y52	Z52	X53	Y53	Z53	

102	1.01	432.611328125	1056.846435546875	985.3558349609375	408.9192199707031	1057.775634765625	1107.040405273438	418.4479370117188	1095.271240234375	1044.59326171875	151.4850921630859	1290.153442382812	1015.918029785156	444.1933898925781	1256.953247070312	1057.862915039062	360.5809936523438	1520.752807617188	1064.380126953125	169.2413330078125	1405.545166015625	1031.55908203125	452.8306579589844	1353.60986328125	963.1812133789062	356.163330078125	1494.001098632812	1164.030639648438	272.4446716308594	1476.869995117188	1232.699340820312	299.9472961425781	1343.829223632812	1307.593505859375	289.7485046386719	1125.22412109375	1320.83447265625	355.0277709960938	1114.988647460938	1262.700317382812	211.0896759033203	884.1463012695312	1261.725830078125	281.1876220703125	871.8419799804688	1325.028442382812	280.4787902832031	1014.432739257812	1332.01806640625	236.3617095947266	704.654296875	1235.657348632812	271.7302856445312	800.721923828125	1316.834838867188	205.867919921875	803.7506103515625	1280.387451171875	323.7494506835938	1500.822998046875	875.5994262695312	356.2733459472656	1436.363647460938	808.988037109375	385.9209594726562	1146.545776367188	754.4783935546875	382.7518920898438	1140.438232421875	852.1864624023438	236.8391418457031	924.8148193359375	765.7931518554688	315.4872436523438	902.0315551757812	728.8272094726562	361.0191345214844	1073.07421875	735.7540283203125	210.2665405273438	741.9461059570312	799.3034057617188	205.6200714111328	833.312255859375	756.8253784179688	281.6613159179688	820.3052978515625	731.8817138671875	285.6410217285156	1682.354858398438	983.1052856445312	91.66056060791016	1697.475952148438	1079.71240234375	113.676872253418	1693.141479492188	951.1165161132812	265.8873291015625	1695.259521484375	1117.835083007812	293.3841247558594	991.30908203125	1207.682495117188	302.5994262695312	1014.230834960938	834.5933227539062	213.5993347167969	1038.099731445312	880.2901611328125	174.9006500244141	1022.887634277344	1137.238525390625	310.8235778808594	495.3087463378906	1147.741455078125	294.4083251953125	637.5667724609375	1181.340454101562	436.722900390625	41.47216033935547	1129.277465820312	367.9541625976562	271.2507934570312	1150.473022460938	217.5173950195312	45.40268325805664	1095.7958984375	268.7737426757812	48.19888687133789	1049.436645507812	327.7637329101562	34.30499267578125	1165.065185546875	490.2494201660156	41.41784286499023	1061.540649414062	122.9259185791016	534.517578125	843.7496337890625	196.5054931640625	797.4119262695312	815.6478271484375	343.4748840332031	87.62038421630859	864.1825561523438	134.2547912597656	407.9431457519531	855.3272705078125	125.9084854125977	64.25131225585938	851.9673461914062	168.8256072998047	62.04840469360352	906.0927734375	243.9931640625	67.86831665039062	808.9201049804688	380.4335327148438	95.15994262695312	940.5508422851562	
103	1.02	430.359375	1056.957763671875	985.8790893554688	406.3829345703125	1057.86865234375	1107.500854492188	416.0291137695312	1095.366088867188	1045.174438476562	148.8308868408203	1290.041015625	1015.361572265625	441.4473876953125	1256.940063476562	1058.706787109375	357.6284484863281	1520.671997070312	1064.724731445312	166.4801940917969	1405.458374023438	1030.974365234375	450.4652709960938	1353.5673828125	964.0760498046875	352.74462890625	1494.011596679688	1164.359130859375	268.7024841308594	1476.928833007812	1232.615844726562	295.885009765625	1343.915283203125	1307.736572265625	285.9723815917969	1125.450439453125	1320.947509765625	351.4595031738281	1115.244750976562	1263.007202148438	208.7833709716797	883.7266845703125	1262.562744140625	278.8797912597656	872.1774291992188	1326.328369140625	277.2260131835938	1014.762268066406	1332.546020507812	235.5047607421875	704.1873168945312	1237.540893554688	269.9801330566406	800.9536743164062	1318.483032226562	204.3800506591797	803.1121826171875	1281.961059570312	321.8048095703125	1500.710693359375	875.8045654296875	354.87939453125	1436.353149414062	809.4330444335938	385.8033447265625	1146.569580078125	755.356689453125	381.4938659667969	1140.499267578125	853.014404296875	236.3790740966797	925.0333251953125	764.9358520507812	315.4790344238281	901.9862670898438	729.1572265625	361.1395568847656	1073.071899414062	736.3682861328125	208.7337646484375	742.3265380859375	798.43896484375	204.9977416992188	833.6943359375	755.7169189453125	281.3887329101562	820.316162109375	731.9336547851562	282.918212890625	1682.239013671875	982.9866333007812	88.33628082275391	1697.08837890625	1078.409057617188	111.1820678710938	1692.69775390625	949.98291015625	262.3388977050781	1695.1982421875	1117.595703125	290.747314453125	991.0419311523438	1207.937744140625	300.4523010253906	1014.657470703125	834.951171875	211.5214233398438	1038.099365234375	880.5585327148438	172.4768981933594	1022.509826660156	1137.359130859375	309.9917602539062	495.0513000488281	1147.638061523438	293.1206359863281	637.3648071289062	1181.215942382812	436.7142333984375	41.46283721923828	1129.291259765625	367.6438598632812	271.2702941894531	1150.452392578125	217.4759979248047	45.3742790222168	1095.821166992188	268.6617431640625	48.22073745727539	1049.45166015625	327.8271789550781	34.22478485107422	1165.139038085938	490.2446594238281	41.65773391723633	1061.648681640625	116.6571502685547	536.874267578125	842.0275268554688	193.7217407226562	798.8092651367188	814.8582153320312	330.0327758789062	86.63289642333984	865.319091796875	125.9943084716797	410.21337890625	853.6865234375	112.3726348876953	66.52889251708984	849.952880859375	154.5571594238281	63.67527770996094	904.6865844726562	231.0908050537109	68.51845550537109	808.6078491210938	366.0231323242188	93.60546875	942.0940551757812	
104	1.03	427.9916381835938	1057.03271484375	986.3212280273438	403.7625122070312	1057.93359375	1107.87158203125	413.5115051269531	1095.439331054688	1045.674560546875	146.0484771728516	1289.925415039062	1014.800354003906	438.5662841796875	1256.908325195312	1059.485229492188	354.5509338378906	1520.57373046875	1064.981567382812	163.5930633544922	1405.375732421875	1030.361206054688	447.9533081054688	1353.50048828125	964.8985595703125	349.2158508300781	1494.028686523438	1164.600341796875	264.8192443847656	1476.972900390625	1232.404174804688	291.7576599121094	1344.063720703125	1307.835693359375	282.1561889648438	1125.721801757812	1321.016967773438	347.8113708496094	1115.549560546875	1263.237548828125	206.3526306152344	883.3838500976562	1263.379028320312	276.4418029785156	872.5572509765625	1327.500610351562	273.9058227539062	1015.131103515625	1333.00390625	234.3413696289062	703.81787109375	1239.254150390625	268.0575256347656	801.241455078125	1319.980346679688	202.7182922363281	802.5071411132812	1283.412841796875	319.6976318359375	1500.563598632812	875.942626953125	353.3250427246094	1436.305908203125	809.8177490234375	385.5714111328125	1146.59375	756.1620483398438	380.1326293945312	1140.537475585938	853.7591552734375	235.8540649414062	925.2211303710938	763.9962768554688	315.3756408691406	901.9208374023438	729.361572265625	361.1369934082031	1073.061157226562	736.8970947265625	207.259521484375	742.6340942382812	797.46826171875	204.3666687011719	834.0072631835938	754.5374755859375	281.0638732910156	820.298095703125	731.8642578125	280.1588745117188	1682.060424804688	982.761474609375	84.98580169677734	1696.766845703125	1076.991821289062	108.6584320068359	1692.2744140625	948.7342529296875	258.7612915039062	1695.126831054688	1117.2431640625	288.0597229003906	990.742919921875	1208.137451171875	298.0633239746094	1015.045471191406	835.2756958007812	209.2834777832031	1038.100708007812	880.81884765625	169.9742889404297	1022.130065917969	1137.472778320312	309.0833129882812	494.7764587402344	1147.46484375	291.7425537109375	637.138427734375	1181.032836914062	436.7046203613281	41.45553207397461	1129.296264648438	367.3388061523438	271.3002624511719	1150.397216796875	217.4342346191406	45.34389495849609	1095.858032226562	268.5481872558594	48.24256134033203	1049.482055664062	327.906494140625	34.15469360351562	1165.222290039062	490.2165832519531	41.86223983764648	1061.722412109375	110.6238021850586	539.1314697265625	840.308349609375	190.839599609375	800.19384765625	814.1079711914062	315.5899658203125	85.03829956054688	865.9661865234375	117.7495269775391	412.401123046875	851.8683471679688	97.8692626953125	68.74629974365234	847.6780395507812	139.3453826904297	65.14193725585938	902.9727172851562	217.1315002441406	68.80538177490234	807.9122924804688	350.6827697753906	91.36368560791016	943.0896606445312	
105	1.04	425.5180969238281	1057.043823242188	986.6903686523438	401.0611267089844	1057.940307617188	1108.15966796875	410.901611328125	1095.463012695312	1046.09716796875	143.1425170898438	1289.778198242188	1014.227966308594	435.5589599609375	1256.848999023438	1060.196044921875	351.3428344726562	1520.445190429688	1065.153076171875	160.5833282470703	1405.263793945312	1029.718383789062	445.2985229492188	1353.397705078125	965.6475830078125	345.5699157714844	1494.03515625	1164.756591796875	260.7767028808594	1476.963134765625	1232.053100585938	287.5564575195312	1344.251831054688	1307.896484375	278.3025817871094	1126.01123046875	1321.063720703125	344.095947265625	1115.876953125	1263.425048828125	203.7757110595703	883.1016235351562	1264.150268554688	273.8527526855469	872.9473876953125	1328.542114257812	270.5117797851562	1015.507263183594	1333.405151367188	232.8677215576172	703.5188598632812	1240.7880859375	265.9366455078125	801.5519409179688	1321.31494140625	200.8338623046875	801.9661254882812	1284.708740234375	317.424072265625	1500.360961914062	876.011474609375	351.6015625	1436.197509765625	810.136474609375	385.2030334472656	1146.592895507812	756.8788452148438	378.6622619628906	1140.527587890625	854.4055786132812	235.2450408935547	925.3516235351562	762.9906616210938	315.1605529785156	901.8109130859375	729.4429931640625	360.9938354492188	1073.016479492188	737.3319702148438	205.8356781005859	742.8384399414062	796.41650390625	203.7132263183594	834.2160034179688	753.3050537109375	280.6811218261719	820.2255859375	731.6817626953125	277.366455078125	1681.791870117188	982.4352416992188	81.61204528808594	1696.500610351562	1075.457641601562	106.1073532104492	1691.864013671875	947.3734741210938	255.1548156738281	1695.019775390625	1116.78125	285.3151550292969	990.403564453125	1208.277709960938	295.5228881835938	1015.369140625	835.5619506835938	206.9133453369141	1038.091430664062	881.0510864257812	167.382080078125	1021.745483398438	1137.563232421875	308.1133728027344	494.4940795898438	1147.244873046875	290.2774353027344	636.88623046875	1180.8017578125	436.6939086914062	41.44953536987305	1129.294067382812	367.0399475097656	271.3365173339844	1150.31689453125	217.3897094726562	45.31023406982422	1095.904907226562	268.4349365234375	48.26470947265625	1049.527954101562	327.9993896484375	34.09317016601562	1165.3173828125	490.1698608398438	42.03264236450195	1061.762939453125	104.7764739990234	541.2664794921875	838.6061401367188	187.8614654541016	801.5335083007812	813.3939208984375	300.2271423339844	82.94559478759766	866.0962524414062	109.5115966796875	414.50341796875	849.882568359375	82.50021362304688	70.94068145751953	845.1715087890625	123.2987747192383	66.49159240722656	900.9713745117188	202.1944122314453	68.79635620117188	806.8265991210938	334.5030517578125	88.55525970458984	943.5166015625	
